<svg xmlns="http://www.w3.org/2000/svg" data-name="Layer 10" viewBox="0 0 751.3 188"><style>.a{fill:#fdd835;}.b{fill:#3fa9f5;}</style><title>  codelab_logo</title><path d="M139.1 52.5C167.6 52.5 189 74 189 102.4s-21.5 50.1-49.9 50.1S89 130.9 89 102.4 110.7 52.5 139.1 52.5Zm0 85.3c19.6 0 34.9-15.4 34.9-35.4C174 82.6 158.8 67 139.1 67c-20 0-34.9 15.6-34.9 35.4C104.3 122.4 119.1 137.9 139.1 137.9Z" class="a"/><path d="M211.4 54h34.5c29.2 0 47.5 20.2 47.5 48.5 0 28.5-18.3 48.5-47.5 48.5h-34.5Zm14.7 14v69h19.6c20.6 0 32.7-14.7 32.7-34.5 0-19.6-12.1-34.5-32.7-34.5Z" class="a"/><path d="M316.4 150.9V54h52.9V67.9H331.1V95.1h35.4V109H331.1v27.9h38.2v14Z" class="a"/><path d="M395.1 150.9V54h14.7v83H448v14Z" class="a"/><path d="M519 125.7H481.4l-9.2 25.1H455.9L492 54h16.5l36.2 96.9H528.4Zm-32.8-13.9h28.1L500.3 73.3Z" class="a"/><path d="M562.9 54H593c17.1 0 29.4 9.9 29.4 25.3 0 10.8-5.1 18-13 21.7 9.4 3.7 16 11.6 16 23.5 0 16.3-13 26.4-31.2 26.4h-31.2Zm29.9 14H577.6V94.2h15.2c7.7 0 14.3-4 14.3-13S600.5 67.9 592.8 67.9Zm1.3 40.2H577.6v28.8h16.5c8.8 0 16-4.4 16-14.3S602.9 108.1 594.1 108.1Z" class="a"/><path d="M33.5 106.3a33 33 0 0 0 9.9 24.3 33.4 33.4 0 0 0 24.3 9.9q3 5.7 8.7 17.3H67.7A48.7 48.7 0 0 1 42.4 151 49.8 49.8 0 0 1 24 133.5a46 46 0 0 1-5.7-12.9 49.1 49.1 0 0 1-2.1-14.3V93.8a35.4 35.4 0 0 0-7-9.5A21 21 0 0 0 0 78.9 29.7 29.7 0 0 0 9.1 73a45.4 45.4 0 0 0 7.2-9.5V51.7A49.8 49.8 0 0 1 23 26.2 49.9 49.9 0 0 1 40.5 7.8 46 46 0 0 1 53.3 2.1 49.2 49.2 0 0 1 67.7 0h8.7a17.4 17.4 0 0 1-1.9 3.6q0 0.2-2.7 5.9A36.9 36.9 0 0 0 70 12.9q-1.1 1.9-2.3 4.4A33.1 33.1 0 0 0 43.4 27.4a33 33 0 0 0-9.9 24.3V64.3a43.7 43.7 0 0 0-2.1 8.9q-0.6 3.8-5.7 5.7 5.3 1.5 5.9 5.1A65.5 65.5 0 0 0 33.5 93v13.3Z" class="a"/><path d="M680.8 99.1V93a65.7 65.7 0 0 0 1.9-9.1q0.6-3.6 5.9-5.1-5.1-1.9-5.7-5.7a43.9 43.9 0 0 0-2.1-8.9V51.7a33 33 0 0 0-9.9-24.2 33.1 33.1 0 0 0-24.2-10.1q-1.3-2.5-2.3-4.4a37.2 37.2 0 0 0-1.7-3.4q-2.7-5.7-2.7-5.9A17.2 17.2 0 0 1 638 0h8.6A49.2 49.2 0 0 1 661 2.1 46 46 0 0 1 673.9 7.8a49.9 49.9 0 0 1 17.5 18.3 49.8 49.8 0 0 1 6.8 25.5V63.5A45.3 45.3 0 0 0 705.3 73a29.6 29.6 0 0 0 9.1 5.9 21 21 0 0 0-9.3 5.5 35.4 35.4 0 0 0-7 9.5v12.4A49.1 49.1 0 0 1 696 120.6a46 46 0 0 1-5.7 12.9A49.8 49.8 0 0 1 672 151a48.7 48.7 0 0 1-25.3 6.8H638q5.7-11.6 8.6-17.3a33.4 33.4 0 0 0 24.3-9.9 33 33 0 0 0 9.9-24.2Z" class="b"/><path d="M731.8 125.8h19.4l-17.1 62.2H714.8ZM750 65.5V85.5H730.6V65.5Z" class="b"/></svg>